<?xml version="1.0" encoding="utf-8"?>
<!-- Generator: Adobe Illustrator 16.0.0, SVG Export Plug-In . SVG Version: 6.00 Build 0)  -->
<!DOCTYPE svg PUBLIC "-//W3C//DTD SVG 1.1//EN" "http://www.w3.org/Graphics/SVG/1.1/DTD/svg11.dtd">
<svg version="1.1" id="Layer_1" xmlns="http://www.w3.org/2000/svg" xmlns:xlink="http://www.w3.org/1999/xlink" x="0px" y="0px"
	 width="337.5px" height="319.188px" viewBox="-1.199 0 337.5 319.188" enable-background="new -1.199 0 337.5 319.188"
	 xml:space="preserve">
<style>
path, line, polyline {
  stroke-width: 2;
  animation-fill-mode: forwards;
  animation-iteration-count: infinite;
  animation-name: draw;
  animation-timing-function: linear; }
  path#first, line#first, polyline#first {
    stroke: Dodgerblue;
    stroke-dasharray: 1000;
    stroke-dashoffset: 1000;
    animation-duration: 15s; }
    path#first.glasses, line#first.glasses, polyline#first.glasses {
      stroke: #00ffcc; }

@keyframes draw {
  100% {
    stroke-dashoffset: 0;
    opacity: 1;
 } }
</style>	 
<path id="first" stroke="#4888C8" stroke-miterlimit="10" d="M58.146,223.2c0.404,0.039,13.132,0.896,13.132,11.755
	c0,10.86-19.566,6.06-19.995-2.834C50.854,223.23,58.146,223.2,58.146,223.2z"/>
<path id="first" fill="none" stroke="#4888C8" stroke-miterlimit="10" d="M51.266,252.153c0,0-18.149-6.671-13.315-12.671
	s13.333-0.163,15.833,2.21s3.833-1.544,3.833-1.294s-2.362,4.333-3.098,7.75c-0.736,3.417,1.634,1.53,2.654,4.004
	c1.023,2.474,2.442-0.17,5.774,3.413s2.782,6.088,6.974,4.294c4.192-1.794,4.184-2.377,1.354-5.377s-7.496-0.333-7.329-3.75
	s0.921,1.046,2.2-4.502c1.276-5.548,2.403-4.208,0.301-7.222c-2.105-3.017-5.296-0.829-6.917,0"/>
<path id="first" fill="none" stroke="#4888C8" stroke-miterlimit="10" d="M125.036,237.622
	c-20.991-2.282-55.738-5.416-55.738-5.416"/>
<path id="first" fill="none" stroke="#4888C8" stroke-miterlimit="10" d="M71.278,260.454c0,0,69.005,14.945,69.505,14.403
	c0.433-0.47,16.82,2.676,21.188-9.724"/>
<path id="first" fill="none" stroke="#4888C8" stroke-miterlimit="10" d="M162.604,264.328
	c-2.923,6.195-9.767,10.543-17.737,10.543c-10.631,0-19.25-7.729-19.25-17.263c0-1.626,0.251-3.199,0.719-4.691"/>
<path id="first" fill="none" stroke="#4888C8" stroke-miterlimit="10" d="M130.206,262.378c0,0-0.46,6.117,10.045,7.546
	c0,0,0.738-3.033,0.34-4.24c0,0-3.804-1.233-3.918-3.303L130.206,262.378L130.206,262.378z"/>
<path id="first" fill="none" stroke="#4888C8" stroke-miterlimit="10" d="M145.144,271.341c0,0,9.347,0.379,11.567-6.938
	c0,0-4.633-0.543-6.479-0.276c0,0-1.901,2.646-5.064,2.702L145.144,271.341z"/>
<path id="first" fill="none" stroke="#EE252F" stroke-miterlimit="10" d="M254.283,253.531l11.75-7.216c0,0,5.96,1.131,1.5,6.561
	c-4.46,5.433-13.25,7.002-13.25,7.002S250.698,255.733,254.283,253.531z"/>
<path id="first" fill="none" stroke="#EE252F" stroke-miterlimit="10" d="M205.533,157.315c0,0-28.5,24-13.75,29.5
	c12.035,4.487,13.528,4.76,16.749,5.613c0.727,0.189,1.541,0.414,2.584,0.721c5.667,1.666,9.75-3.06,9.417,3.166
	s-4.084,10.5,2.083,17.5s1-6.166,3.5-16.166s0.668-17.668-3.166-20.834s-7.668,0.334-9.334,4.167s-14.462,2.501-13.897-0.833
	c0.565-3.334,32.23-51.167,43.897-51.834s7.792,18.625-10.833,17.875c0,0-8.232,5.125,2.509,5.375s22.616-2.875,22.741-14.125
	s1.375-11.125,4.875-7.875s6.25,10.875,8.625,15.25s1.75,2.25,1.125-4.25s-2.125-10.125-4-14.25s1.875-3.25,1.75-6
	s-3.75-6-5.25-7.125s-5.5-0.875-6.125,1.875s-0.125,3.5-2.25,5s-11.5,1.75-16,2.125s-7.375,0.875-9.75,3.5
	S205.533,157.315,205.533,157.315z"/>
<path id="first" fill="none" stroke="#EE252F" stroke-miterlimit="10" d="M124.423,232.53
	c-10.71-20.432-28.89-56.215-28.89-56.215l-23.25,43c0,0-1.75,7.75-4.75,9.5s-7.25-0.273-7.25-0.273l31-57.56l5.803-1.882"/>
<path id="first" fill="none" stroke="#EE252F" stroke-miterlimit="10" d="M109.91,172.639c-3.993-0.046-6.377-0.074-6.377-0.074
	l10.488,19.881"/>
<path id="first" fill="none" stroke="#EE252F" stroke-miterlimit="10" d="M189.621,193.641
	c5.141-5.881,8.702-10.316,8.912-11.576c0.75-4.5,1-9-5-8.75c-2.243,0.093-15.393,0.012-30.979-0.127"/>
<path id="first" fill="none" stroke="#EE252F" stroke-miterlimit="10" d="M186.333,208.904
	c-13.465,16.771-28.05,33.911-28.05,33.911s-15,2.25-9.5-4.5c3.088-3.79,18.153-19.636,30.906-33.604"/>
<path id="first" fill="none" stroke="#EE252F" stroke-miterlimit="10" d="M152.747,165.448l40.87-1.272c0,0,1.334-1.689,0-4.023
	s-6.001-3.167-1.834-7s2.037-2.833,7.936-3.333c5.899-0.5,13.581-2.22,13.581-2.22s6.817,4.553,3.15,10.22s-9.833,3.5-10,8.5
	s-0.001,7,2.083,11c0.645,1.238-3.921,7.981-10.534,16.704"/>
<line id="first" fill="none" stroke="#4888C8" stroke-miterlimit="10" x1="53.783" y1="226.396" x2="17.084" y2="186.725"/>
<line id="first" fill="none" stroke="#4888C8" stroke-miterlimit="10" x1="63.616" y1="221.244" x2="29.908" y2="181.19"/>
<path id="first" fill="none" stroke="#EE252F" stroke-miterlimit="10" d="M126.256,250.328l-56.958-5.685l0.906-3.432
	l45.849,2.771l2.23-2.771l-46.521-19.971c0,0,0.021-4.337,4.521-2.633c3.285,1.244,32.849,12.25,48.582,18.105"/>
<path id="first" fill="none" stroke="#EE252F" stroke-miterlimit="10" d="M215.7,180.232c0,0-3-10.999,1.25-14.833
	s8.75-2.416,4.75-5.25s-5.5-3.75-5.5-3.75l-6.25,11.25c0,0,7.5,4.416,11.25,4.833s6.667,11.084,6.75,12.917"/>
<path id="first" fill="none" stroke="#EE252F" stroke-miterlimit="10" d="M223.908,170.065c0.875-0.5,0.625-1.5,2.75-5.25
	s-0.5-6.125-2.75-6s-6.378,4.881-6.438,1.625"/>
<path id="first" fill="none" stroke="#EE252F" stroke-miterlimit="10" d="M223.158,170.899l-1.875-6.461
	c0,0-5.832-2.293-6.176-3.873"/>
<path id="first" fill="none" stroke="#EE252F" stroke-miterlimit="10" d="M206.5,195.677c0.487-0.986,0.818-1.975,0.95-2.943"/>
<path id="first" fill="none" stroke="#EE252F" stroke-miterlimit="10" d="M190.117,213.148
	c-4.178,1.253-3.334,0.412-0.459-1.692"/>
<line id="first" fill="none" stroke="#EE252F" stroke-miterlimit="10" x1="215.107" y1="193.641" x2="212.737" y2="200.815"/>
<path id="first" fill="none" stroke="#EE252F" stroke-miterlimit="10" d="M197.346,215.783c0,0-5.85-0.454-7.229-2.048"/>
<g>
	<path id="first" fill="none" stroke="#4888C8" stroke-miterlimit="10" d="M225.843,200.926c4.591-0.985,9.813-1.394,15.69-1.11
		c0,0,75,5.75,85,69.25c0,0,1.416,49.915-66.25,30.915c-47.416-13.313-70.199-58.708-56.736-83.596"/>
	<path id="first" fill="none" stroke="#4888C8" stroke-miterlimit="10" d="M215.107,204.846
		c1.493-0.828,3.099-1.567,4.816-2.209"/>
	<path id="first" fill="none" stroke="#4888C8" stroke-miterlimit="10" d="M227.537,190.716c7.15-1.215,14.404-1.33,20.746-1.07
		c0,0,47,3.42,76.75,50.17c28.5,42.75-7.5,74.5-41.75,73.25s-91.5-39.5-91.5-80c0-7.75,1.245-14.158,3.416-19.447"/>
	<path id="first" fill="none" stroke="#4888C8" stroke-miterlimit="10" d="M214.635,194.384c1.453-0.621,2.941-1.169,4.455-1.65
		"/>
	<polyline id="first" fill="none" stroke="#4888C8" stroke-miterlimit="10" points="251.379,296.999 260.95,261.648 
		272.364,302.798 290.635,304.226 268.616,254.648 	"/>
	<line id="first" fill="none" stroke="#4888C8" stroke-miterlimit="10" x1="306.191" y1="300.996" x2="260.596" y2="260.44"/>
	<line id="first" fill="none" stroke="#4888C8" stroke-miterlimit="10" x1="234.033" y1="286.065" x2="258.033" y2="259.878"/>
	<line id="first" fill="none" stroke="#4888C8" stroke-miterlimit="10" x1="220.533" y1="274.106" x2="252.783" y2="256.065"/>
	<line id="first" fill="none" stroke="#4888C8" stroke-miterlimit="10" x1="208.533" y1="257.565" x2="254.283" y2="257.565"/>
	<line id="first" fill="none" stroke="#4888C8" stroke-miterlimit="10" x1="202.533" y1="242.815" x2="263.127" y2="248.565"/>
	<polyline id="first" fill="none" stroke="#4888C8" stroke-miterlimit="10" points="202.533,226.315 252.783,254.648 
		322.533,279.437 	"/>
	<polyline id="first" fill="none" stroke="#4888C8" stroke-miterlimit="10" points="325.493,263.658 267.533,248.565 
		308.89,231.297 	"/>
	<line id="first" fill="none" stroke="#4888C8" stroke-miterlimit="10" x1="319.819" y1="247.477" x2="266.033" y2="257.565"/>
	<polyline id="first" fill="none" stroke="#4888C8" stroke-miterlimit="10" points="318.643,291.818 266.033,249.815 
		208.533,216.565 	"/>
	<line id="first" fill="none" stroke="#4888C8" stroke-miterlimit="10" x1="245.283" y1="200.258" x2="262.116" y2="251.316"/>
	<polyline id="first" fill="none" stroke="#4888C8" stroke-miterlimit="10" points="271.007,206.768 263.588,250.315 
		291.205,216.565 	"/>
	<path id="first" fill="none" stroke="#4888C8" stroke-miterlimit="10" d="M217.471,212.366
		c14.66,20.75,35.076,49.157,36.813,48.949c2.733-0.328,3-4.024-1.083-9.304c-4.083-5.28-27.084-36.029-27.084-46.029l37.011,39.708
		c0,0,6.823,0.792,4.406-4.708s-36.125-40.929-36.125-40.929"/>
	<path id="first" fill="none" stroke="#4888C8" stroke-miterlimit="10" d="M202.533,191.065c0,0,0.924,1.331,2.525,3.626"/>
</g>
<g>
	<path id="first" fill="none" stroke="#4888C8" stroke-miterlimit="10" d="M86.947,192.196
		c16.36,9.124,32.247,24.538,36.324,50.457c0,0,1.296,45.716-60.606,28.313c-61.901-17.4-77.911-94.64-17.149-91.738
		c0,0,17.426,1.337,35.884,10.108"/>
	<path id="first" fill="none" stroke="#4888C8" stroke-miterlimit="10" d="M91.362,184.766
		c7.463,4.854,15.154,11.274,22.265,19.771"/>
	<path id="first" fill="none" stroke="#4888C8" stroke-miterlimit="10" d="M127.312,259.78
		c-7.854,14.896-25.981,23.815-43.606,23.172C52.372,281.806,0,246.775,0,209.681c0-37.093,31.104-40.61,51.688-39.771
		c0,0,15.828,1.153,34.354,11.624"/>
	<polyline id="first" fill="none" stroke="#4888C8" stroke-miterlimit="10" points="54.52,268.236 63.275,235.859 
		73.717,273.548 90.431,274.857 70.288,229.449 	"/>
	<line id="first" fill="none" stroke="#4888C8" stroke-miterlimit="10" x1="104.662" y1="271.897" x2="62.95" y2="234.753"/>
	<line id="first" fill="none" stroke="#4888C8" stroke-miterlimit="10" x1="38.651" y1="258.222" x2="60.607" y2="234.238"/>
	<line id="first" fill="none" stroke="#4888C8" stroke-miterlimit="10" x1="26.301" y1="247.269" x2="55.805" y2="230.747"/>
	<line id="first" fill="none" stroke="#4888C8" stroke-miterlimit="10" x1="15.324" y1="232.121" x2="57.176" y2="232.121"/>
	<line id="first" fill="none" stroke="#4888C8" stroke-miterlimit="10" x1="9.835" y1="218.611" x2="65.267" y2="223.878"/>
	<polyline id="first" fill="none" stroke="#4888C8" stroke-miterlimit="10" points="7.801,203.014 55.805,229.449 
		119.612,252.152 	"/>
	<polyline id="first" fill="none" stroke="#4888C8" stroke-miterlimit="10" points="122.32,237.7 69.298,223.878 
		107.13,208.062 	"/>
	<line id="first" fill="none" stroke="#4888C8" stroke-miterlimit="10" x1="117.129" y1="222.881" x2="67.926" y2="232.121"/>
	<polyline id="first" fill="none" stroke="#4888C8" stroke-miterlimit="10" points="116.053,263.491 67.926,225.021 
		11.846,193.503 	"/>
	<line id="first" fill="none" stroke="#4888C8" stroke-miterlimit="10" x1="48.943" y1="179.633" x2="64.342" y2="226.396"/>
	<polyline id="first" fill="none" stroke="#4888C8" stroke-miterlimit="10" points="72.476,185.596 65.688,225.48 
		90.952,194.57 	"/>
</g>
<path id="first" fill="none" stroke="#4888C8" stroke-miterlimit="10" d="M70.283,185.596c0.085,1.331,3.167,0.219,3.917,1.719
	s0.5,3,1.75,3.25s3.637-1,3.637-1s0.863-4.417,1.863-5.5s2.417-4,3.333-6.5s1.333-4.166,1.917-5.833s1.833-4.25,1.833-4.25
	s-0.833-0.916-2.083,0s-0.167,1.666-3,4.416s-7.25,6.219-8.75,7.734C73.2,181.147,70.2,184.294,70.283,185.596z"/>
<path id="first" fill="none" stroke="#6AC8C5" stroke-miterlimit="10" d="M142.165,181.224
	c-0.547,3.575-1.221,6.981-1.455,9.841c-0.573,7-0.76,27.25,0.74,39.682c1.5,12.435,16.416,14.624,22.667,15.483
	c6.251,0.858,17.666,4.585,12.666,11.992s-18,8.093-24.667,5.839s-7.833,1.087-19-1.746s-5.072-4.018-7.5-21.104
	c-2.428-17.089-8.5-27.729-11.993-36.681s0.857-11.217,3.505-18.938c2.648-7.724,2.488-5.114-2.179-9.948s-22.422-7.33-22.422-7.33
	s-33.744-11.25-53.876-26.5s-13.83-30.14-13.83-30.14s2.586-6.444,3.461-13.194s2.946-16.667,8.849-21.417
	c5.901-4.75,15.693-14.75,18.67-17.5c2.979-2.75,13.229-11,25.479-11.75s17.508-3,23.379-3.75s16.444-1.25,17.658-1.5"/>
<path id="first" fill="none" stroke="#6AC8C5" stroke-miterlimit="10" d="M95.809,129.065c0,0-18.461-7.762,11.812,5.864"/>
<path id="first" fill="none" stroke="#6AC8C5" stroke-miterlimit="10" d="M71.278,116.065c3.255-1,18.005-6.506,28.005-3.503"/>
<path id="first" fill="none" stroke="#6AC8C5" stroke-miterlimit="10" d="M97.783,105.815c0,0,2.021-0.14,3.636,8.056
	c1.615,8.194,10.364,30.444,12.364,30.944s13.417,26.834,25.125,34.334s35.709,22.324,43.709,27.412s13.5,8.354,16.333,9.222
	s5.917,0.218,7.917,0c0,0,0.583,0.366,0.833-1.051s2.833-0.167,2.833-1.167s-0.25-0.416,0-1.833s3.25,1.75,4,1
	s3.701-0.257,5.417-0.167s2.916-2.75-2.417-6s-8.333-1.917-9-3.75s5.751,2.666,5.167,0.083s-5.084-8-11.167-8.833
	s-10.917,2.416-17.25-3s-38-29.25-42.5-34.083s-5.833-24.667-9.833-31.333s-1.389-17-1.611-22c-0.222-5-1.556-4.334,0.944-7.167
	s10.333-4,13.333-7.5s2.5-0.5,5,2.667s4,2.5,4.5-2s0.334-6.334,3.667-3.334s16.5,16.222,25.5,25.36s14.25,12.14,24.25,16.64
	s17.5,10.125,24.5,11.875s4.245,4.317,7.375,4s7.375-3.5,11.375-0.25s5.059,2.145,4.654-0.303c-0.405-2.448-5.279-3.947-5.154-5.072
	"/>
<path id="first" fill="none" stroke="#6AC8C5" stroke-miterlimit="10" d="M258.408,141.815c0.375,0,5.625-0.75,6.375,3.5
	s-0.625,6.813,1.25,5.218c1.875-1.594,3.125-4.843,1.625-8.218s-2.875-2.875-2.875-4.5s4.75,1.25,7.875,2.75s4,0.534,2.125-3.233
	c-1.875-3.767-10.375-7.392-14.875-6.892"/>
<path id="first" fill="none" stroke="#6AC8C5" stroke-miterlimit="10" d="M248.033,133.315c0,0-5.625,1.75-6.125,0.875
	s-3.875-2-3.875-2"/>
<path id="first" fill="none" stroke="#6AC8C5" stroke-miterlimit="10" d="M229.283,126.565c0,0-21.499-20.75-26.833-25.917
	s-13.973-9.667-14.903-14.667c-0.93-5-6.265-8.5-6.931-11.5s-3.266-5.167-3.466-7"/>
<path id="first" fill="none" stroke="#6AC8C5" stroke-miterlimit="10" d="M152.747,165.448c0,0,0.786-6.508-1.214-9.383
	s-13.5-14-13.375-15"/>
<path id="first" fill="none" stroke="#6AC8C5" stroke-miterlimit="10" d="M109.533,174.065c0,0,8,4.188,2.25,11.531"/>
<path id="first" fill="none" stroke="#6AC8C5" stroke-miterlimit="10" d="M102.783,206.561
	c-0.833,2.088-10.167,3.229-9.167,9.66c1,6.428,2.333,8.525,12,10.812s11.03,5.944,15.971,7.723"/>
<path id="first" fill="none" stroke="#6AC8C5" stroke-miterlimit="10" d="M101.957,211.482c0,0-2.75,5.001,2.705,7.834
	s9.2,2.833,9.2,2.833s-4.413-2.232-5.413-6.366S101.957,211.482,101.957,211.482z"/>
<path id="first" fill="none" stroke="#6AC8C5" stroke-miterlimit="10" d="M31.533,103.315c2.5-1,20-13.5,26.75-12"/>
<path id="first" fill="none" stroke="#6AC8C5" stroke-miterlimit="10" d="M58.283,88.065c0,0,17.5,1,30.5,3.125
	s15.25-2.813,20.75-6.344s19.25-15.531,19.25-15.531"/>
<path id="first" fill="none" stroke="#6AC8C5" stroke-miterlimit="10" d="M95.809,104.815c0,0,3.304-14.948,15.889-21.474"/>
<path id="first" fill="none" stroke="#6AC8C5" stroke-miterlimit="10" d="M46.762,117.815c0,0,6.521-0.14,15.771-3.944
	c9.25-3.806,7.916-4.741,22.747-4.806"/>
<path id="first" fill="none" stroke="#6AC8C5" stroke-miterlimit="10" d="M93.533,140.065c0,0-26.75-13-25.5-22.25"/>
<path id="first" fill="none" stroke="#6AC8C5" stroke-miterlimit="10" d="M92.527,168.315c0,0,12.089-22.667,17.006-30.667"/>
<path id="first" fill="none" stroke="#6AC8C5" stroke-miterlimit="10" d="M79.587,163.469c0,0,8.304-21.488,21.832-29.654"/>
<path id="first" fill="none" stroke="#6AC8C5" stroke-miterlimit="10" d="M106.635,130.122c0,0,18.387,1.068,24.704-4.432"/>
<path id="first" fill="none" stroke="#6AC8C5" stroke-miterlimit="10" d="M136.447,136.402c0,0-5.78,8.812-24.035,6.736"/>
<path id="first" fill="none" stroke="#6AC8C5" stroke-miterlimit="10" d="M128.783,65.065
	c-0.375,0.375,7.625,21.177,18.375,18.276c10.75-2.901,0.75-0.901-2.5-4.026s-13.319-14.25-13.319-14.25"/>
<path id="first" fill="none" stroke="#6AC8C5" stroke-miterlimit="10" d="M126.283,65.065c0,0-10.667-4.417-10.833-7.417
	s-0.5-3.667,2.167-5.667s6.813-5.333,6.813-5.333"/>
<path id="first" fill="none" stroke="#6AC8C5" stroke-miterlimit="10" d="M167.653,94.944c0,0,17.819,0.308,19.6-10.099"/>
<path id="first" fill="none" stroke="#6AC8C5" stroke-miterlimit="10" d="M158.658,83.619
	c0.375,0.196,15.666,3.405,21.958-9.137"/>
<path id="first" fill="none" stroke="#6AC8C5" stroke-miterlimit="10" d="M121.89,225.112c0,0,12.331,6.417,18.817-2.229"/>
<path id="first" fill="none" stroke="#6AC8C5" stroke-miterlimit="10" d="M126.256,251.19c0,0,3.777-1.5,7.777-6.875
	s9.214-8.127,9.214-8.127"/>
<path id="first" fill="none" stroke="#6AC8C5" stroke-miterlimit="10" d="M150.928,245.815c-1.27,1.125-4.717,4.77-7.681,7.51
	s-2.104,3.865,3.84,1.865c5.945-2,4.696-5.5,6.071-7.25"/>
<path id="first" fill="none" stroke="#6AC8C5" stroke-miterlimit="10" d="M160.658,247.19c0,0-2.766,2.268-3.945,4.821
	c-1.179,2.553-4.18,4.679-3.555,5.804s3,2.033,6-1.608c3-3.641,1.267-3.001,3.446-5.193c0,0,2.642-3.32,4.348-3.195"/>
<path id="first" fill="none" stroke="#6AC8C5" stroke-miterlimit="10" d="M130.203,254.315c0,0-2.913,4.277,0,6.139
	c2.913,1.862,2.705-1.188,3.83-3.066s0-3.557-0.5-4.471C133.033,252.004,130.874,253.087,130.203,254.315z"/>
<path id="first" fill="none" stroke="#6AC8C5" stroke-miterlimit="10" d="M135.971,247.878c0,0-0.125,4.813,2.313,4
	c2.438-0.813,3.875-4.063,6.563-4.688"/>
<path id="first" fill="none" stroke="#64BC46" stroke-miterlimit="10" d="M128.771,46.648c0,0-2.821,8.667,0.013,13.167
	s4,4.667,9.5,10.5s12.5,11.833,19.5,12.333s10.207,1.167,11.854-0.667c1.647-1.834,1.479-5.281,2.479-7.641
	c1-2.36,1.084-2.443,2.084-2.943s-0.333-3.417,0-4.583s0.916-2.583,1.333-3.417"/>
<path id="first" fill="none" stroke="#64BC46" stroke-miterlimit="10" d="M178.016,53.148c0,0-0.271-5.667,0-7.667"/>
<path id="first" fill="none" stroke="#64BC46" stroke-miterlimit="10" d="M137.366,55.315c-0.25,0-11.049-8.706-7.667,0.542
	s7.917,11.458,9,10.708s1.333-2.25,1.25-3.25"/>
<path id="first" fill="none" stroke="#64BC46" stroke-miterlimit="10" d="M135.95,60.982c0,0-0.416,0.583-1.083-1.417
	s-1.558-2.667-0.362-2.333"/>
<path id="first" fill="none" stroke="#64BC46" stroke-miterlimit="10" d="M138.033,55.857l15.75,7.708
	c0,0,5.625,4.385,10.625,3.135s5.541-4.219,7.875-4.635s2.5,1.833,4,0.583s4-3.333,4-6.792s-0.91-4.208-2.83-1.958
	s-3.087,3.086-4.92,3.251s-3.708-1.918-9.625-0.335s-4.542,5.158-6.875,4.246s-18-6.871-18-6.871"/>
<path id="first" fill="none" stroke="#64BC46" stroke-miterlimit="10" d="M111.698,18.982c0,0,7.085,10.167,8.085,13.333
	s1.68,9,5.333,11.667s15,5.833,21,5.333s21.541-3.666,23.521-3.833c1.979-0.167,9.146,0.833,10.646-4.167s4.5-19-8.833-27.5
	C158.116,5.315,148.279-0.018,111.698,18.982z"/>
<path id="first" fill="none" stroke="#64BC46" stroke-miterlimit="10" d="M120.812,28.44c0,0,9.736,11.375,13.104,11.875
	s6.116,1.75,4.116-1.25s-12-11.25-16.375-10.625"/>
<path id="first" fill="none" stroke="#64BC46" stroke-miterlimit="10" d="M119.783,22.315c0,0,6.58,3.625,9.979,4.875
	c3.397,1.25,4.321,1.5,5.174,0c0.85-1.5-4.252-4-5.892-4.875C127.407,21.44,124.031,19.905,119.783,22.315z"/>
<path id="first" fill="none" stroke="#64BC46" stroke-miterlimit="10" d="M124.033,17.69c0,0,6.083-3.875,12.833-1.625
	s8.75,3.167,6.833,4.583s-5.084,1.833-7.75,0s-6.917-3.229-11.417-2.031"/>
<path id="first" fill="none" stroke="#64BC46" stroke-miterlimit="10" d="M139.2,32.315c0,0,4.833,11.333,22.833,11.5
	c0,0,4.583,0.417-0.5-2s-17.703-8.417-21.143-10"/>
<path id="first" fill="none" stroke="#64BC46" stroke-miterlimit="10" d="M139.2,29.648c0.333,0,4.704,0.167,12.81,3.833
	c8.106,3.666,14.313,7.833,13.252,8.167"/>
<path id="first" fill="none" stroke="#64BC46" stroke-miterlimit="10" d="M143.95,39.898c0,0,0,2.304,4.167,3.944
	c4.167,1.64,8.779,2.553,8.167,0.973"/>
<path id="first" fill="none" stroke="#64BC46" stroke-miterlimit="10" d="M146.283,25.482c0,0,18.75,13.333,21.5,14
	s3.834,1.083,1.417-2.667s-14.25-12.218-20-12.191"/>
<path id="first" fill="none" stroke="#64BC46" stroke-miterlimit="10" d="M160.533,18.617c0,0,7.764,15.061,10.007,16.088
	c2.243,1.026-3.55-9.109-5.278-12.833c-1.728-3.725-3.062-3.256-3.062-3.256"/>
<path id="first" fill="none" stroke="#64BC46" stroke-miterlimit="10" d="M148.033,12.148c0,0,1.154,5.167,3.494,7
	s2.423,3.197,4.256,2.725c1.833-0.474,3.167-1.475,1.417-4.225s-8.167-5.5-8.167-5.5"/>
<path id="first" fill="none" stroke="#64BC46" stroke-miterlimit="10" d="M160.116,12.148c-0.333-0.083,7.334,6.083,9,6.833
	s-0.001-1.167-1.584-3.417s-3.917-3.417-5-3.417"/>
<path id="first" fill="none" stroke="#64BC46" stroke-miterlimit="10" d="M171.95,17.058c0,0,4.001,7.523,4.167,11.349
	c0.166,3.826,0.167,8.076,0,8.826s1.893-3.25,1.779-6.833c-0.114-3.583-1.495-8.583-2.974-10.583"/>
<path id="first" fill="none" stroke="#64BC46" stroke-miterlimit="10" d="M130.616,12.148c0.25-0.249,8.167,0.501,11.083,2.001
	s3.417-0.263,2.25-2.048s-7.095-2.618-8.922-1.868s-2.578,0.083-3.578,0.75"/>
<path id="first" fill="none" stroke="#64BC46" stroke-miterlimit="10" d="M142.658,49.369c0,1.196-1.673,21.587,1.292,26.391"
	/>
<path id="first" fill="none" stroke="#64BC46" stroke-miterlimit="10" d="M146.682,49.94c0,0-1.896,23.947,0,27.5"/>
</svg>
